<?xml version="1.0" encoding="UTF-8"?>
<!-- Generator: Adobe Illustrator 16.0.0, SVG Export Plug-In . SVG Version: 6.00 Build 0)  -->
<!DOCTYPE svg PUBLIC "-//W3C//DTD SVG 1.1//EN" "http://www.w3.org/Graphics/SVG/1.1/DTD/svg11.dtd">
<svg version="1.1" id="Layer_1" xmlns="http://www.w3.org/2000/svg" xmlns:xlink="http://www.w3.org/1999/xlink" x="0px" y="0px" width="331.92px" height="80.64px" viewBox="0 0 331.92 80.64" enable-background="new 0 0 331.92 80.64" xml:space="preserve">
<g>
	<path d="M67.347,26.685c3.199-1.162,6.271-1.748,9.763-1.748c5.812,0,9.824,1.529,11.774,4.769   c1.498,1.962,2.085,4.563,2.047,9.802c0,0,0,14.63,0,14.737c0,2.374,1.83,3.602,3.674,3.984l-3.775,7.063   c-1.215-0.106-2.529-0.386-3.753-0.883c-1.979-0.804-3.718-2.169-4.407-4.265c-0.576,1.052-1.325,1.825-2.037,2.54   c-1.934,1.969-4.867,2.864-7.592,2.864c-7.528,0-12.655-3.698-12.655-11.691c0-8.204,5.052-12.124,16.652-12.706   c0.35,0,3.771-0.31,4.155-0.271v-2.321c0-4.615-0.828-5.653-5.243-5.653c-3.599,0-6.67,1.407-11.292,3.495l-2.781-7.167   C63.797,28.234,65.059,27.512,67.347,26.685z M78.149,47.357c-6,0.695-7.964,1.736-7.964,6.1c0,3.617,2.157,5.319,4.86,5.319   c2.89,0,4.765-1.082,6.15-2.596v-9.168L78.149,47.357z"/>
	<g>
		<rect x="97.643" y="6.339" width="9.771" height="58.206"/>
	</g>
	<g>
		<rect x="113.463" y="6.339" width="9.768" height="58.206"/>
	</g>
	<g>
		<polygon points="1.097,14.374 13.563,64.545 24.757,64.545 31.841,28.912 38.869,64.545 49.743,64.545 62.352,14.374     52.223,14.374 44.834,51.541 37.491,14.374 26.775,14.374 19.45,51.828 12.171,14.374   "/>
	</g>
	<path fill="#282829" d="M172.641,26.685c3.203-1.162,6.266-1.748,9.764-1.748c5.809,0,9.824,1.529,11.773,4.769   c1.49,1.962,2.082,4.563,2.047,9.802c0,0,0,14.63,0,14.737c0,2.374,1.834,3.602,3.674,3.984l-3.775,7.063   c-1.268-0.11-2.635-0.409-3.895-0.944c-1.92-0.811-3.59-2.157-4.26-4.203c-0.586,1.052-1.33,1.825-2.037,2.54   c-1.943,1.969-4.871,2.864-7.596,2.864c-7.529,0-12.655-3.698-12.655-11.691c0-8.204,5.052-12.124,16.651-12.706   c0.352,0,3.771-0.31,4.156-0.271v-2.321c0-4.615-0.824-5.653-5.244-5.653c-3.594,0-6.67,1.407-11.291,3.495l-2.785-7.167   C169.088,28.234,170.355,27.512,172.641,26.685z M183.447,47.357c-6.004,0.695-7.973,1.736-7.973,6.1   c0,3.617,2.164,5.319,4.863,5.319c2.891,0,4.766-1.082,6.15-2.596v-9.168L183.447,47.357z"/>
	<path fill="#282829" d="M273.797,61.393c-3.541,2.388-8.334,4.196-13.926,4.196c-11.793,0-18.99-7.458-18.99-20.251   c0-6.716,1.574-11.49,4.709-15.057c3.178-3.618,7.434-5.37,12.746-5.37c5.023,0,9.117,1.569,11.682,4.414   c3.117,3.427,4.533,8.457,4.533,15.611c0,0.395,0,2.957,0,3.282h-23.24c0,6.965,4.307,9.397,9.291,9.397   c3.877,0,7.508-1.113,10.941-2.995L273.797,61.393z M264.021,41.514v-0.678c0-5.32-1.404-8.995-6.346-8.995   c-3.939,0-6.504,2.137-6.691,9.603l0.004,0.069H264.021z"/>
	<path fill="#282829" d="M297.473,24.953c1.811,0,2.928,0.225,4.205,0.741l-2.029,8.812c-1.111-0.401-2.375-0.666-4.127-0.666   c-2.738,0-5.1,0.963-7.24,2.746v27.958h-9.926V36.063c0-2.49-0.283-8.568-0.67-9.611l7.713-1.151   c0.424,0.753,2.273,5.374,2.344,6.414c1.498-2.398,3.529-4.686,5.676-5.81C294.586,25.274,296.445,24.953,297.473,24.953z"/>
	<path fill="#282829" d="M136.679,25.335c0.678,1.014,1.863,4.475,1.897,5.052c2.281-3.816,6.771-5.442,10.288-5.442   c3.044,0,5.845,0.868,8.025,2.403c4.204,2.94,6.793,8.432,6.793,17.188c0,8.073-1.742,13.55-5.721,17.236   c-2.617,2.406-6.109,3.753-10.167,3.753c-3.852,0-6.825-1.305-8.82-2.804c0.012,0.685,0.072,3.048,0.072,3.587v11.765h-9.591   V36.063c0-2.49-0.128-8.568-0.516-9.611L136.679,25.335 M145.701,58.449c2.767,0,4.713-0.364,5.928-2.793   c1.054-2.104,1.559-5.825,1.559-11.309c0-4.162-0.509-7.045-1.514-8.824c-1.035-1.889-2.789-2.708-5.25-2.708   c-2.879,0-5.16,1.048-7.34,2.795v20.477C140.598,57.209,142.919,58.449,145.701,58.449z"/>
	<path fill="#282829" d="M210.477,25.335c0.676,1.014,1.867,4.475,1.9,5.052c2.281-3.816,6.771-5.442,10.285-5.442   c3.051,0,5.846,0.868,8.025,2.403c4.205,2.94,6.799,8.432,6.799,17.188c0,8.073-1.752,13.55-5.725,17.236   c-2.615,2.406-6.105,3.753-10.168,3.753c-3.854,0-6.822-1.305-8.818-2.804c0.012,0.685,0.076,3.048,0.076,3.587v11.765h-9.596   V36.063c0-2.49-0.123-8.568-0.516-9.611L210.477,25.335 M219.498,58.449c2.771,0,4.717-0.364,5.932-2.793   c1.055-2.104,1.555-5.825,1.555-11.309c0-4.162-0.5-7.045-1.51-8.824c-1.039-1.889-2.789-2.708-5.254-2.708   c-2.881,0-5.156,1.048-7.34,2.795v20.477C214.395,57.209,216.721,58.449,219.498,58.449z"/>
	<g>
		<polygon points="316.254,16.054 323.324,20.008 321.928,18.057 331.295,14.96 329.143,8.224 319.729,11.333 319.729,1.397     312.949,1.397 312.949,11.333 303.537,8.224 301.379,14.96 310.752,18.057 304.99,26.116 310.633,30.281 316.338,22.298     317.777,24.314 316.764,18.807   "/>
		<polygon points="331.227,25.939 325.119,22.525 318.039,18.562 319.562,26.808 320.82,33.6 323.959,29.711 328.08,35.501     330.738,33.539 326.588,27.722   "/>
	</g>
</g>
</svg>